<?xml version="1.0" encoding="UTF-8"?>
<svg id="Capa_1" data-name="Capa 1" xmlns="http://www.w3.org/2000/svg" viewBox="0 0 797.42 747.57">
  <defs>
    <style>
      .cls-1 {
        fill: #004a88;
      }

      .cls-1, .cls-2, .cls-3, .cls-4, .cls-5, .cls-6, .cls-7, .cls-8, .cls-9, .cls-10 {
        stroke-width: 0px;
      }

      .cls-11 {
        fill: none;
        stroke: #0689ff;
        stroke-miterlimit: 10;
        stroke-width: 36.66px;
      }

      .cls-2 {
        fill: #e59d00;
      }

      .cls-3 {
        fill: #ff152a;
      }

      .cls-4 {
        fill: #ff290c;
      }

      .cls-5 {
        fill: #00681c;
      }

      .cls-6 {
        fill: #002360;
      }

      .cls-7 {
        fill: #00af36;
      }

      .cls-8 {
        fill: #df051f;
      }

      .cls-9 {
        fill: #009c3f;
      }

      .cls-10 {
        fill: #007ec0;
      }
    </style>
  </defs>
  <g>
    <path class="cls-7" d="m221.73,342.73c9.11-15.56,20.27-29.89,33.07-42.48l-108.42-118.75c-27.23,26-50.37,56.2-68.69,89.47l144.04,71.76Z"/>
    <path class="cls-2" d="m487.34,258.77c16.38,7.48,31.63,17.1,45.45,28.46l108.62-118.55c-28.66-24.77-61.01-45.04-96.33-60.2l-57.74,150.28Z"/>
    <path class="cls-8" d="m736.15,294.53l-144.04,71.77c6.86,16.07,11.77,33.07,14.43,50.88l160.21-15.15c-4.71-37.88-15.25-74.01-30.61-107.49h0Z"/>
    <path class="cls-9" d="m581.84,345.53l144.04-71.87c-17.91-33.07-40.64-63.26-67.36-89.27l-108.62,118.65c12.39,12.69,23.13,26.92,31.94,42.48h0Z"/>
    <path class="cls-5" d="m197.57,490.61H34.87c-1.64-14.04-2.48-28.31-2.48-42.77,0-8.08.31-16.19.72-24.07l160.21,14.35c-.11,3.26-.2,6.44-.2,9.72,0,14.68,1.59,29.01,4.43,42.77Z"/>
    <path class="cls-4" d="m769.6,447.84c0,14.49-.84,28.76-2.51,42.77h-162.72c2.98-13.79,4.4-28.11,4.4-42.77,0-2.56,0-5.02-.08-7.47l160.21-15.16c.39,7.47.7,14.93.7,22.63Z"/>
    <path class="cls-10" d="m195.73,415.04c2.86-18.12,8.09-35.42,15.36-51.7l-143.94-71.66c-15.97,33.78-26.82,70.53-31.84,109.03l160.42,14.33Z"/>
    <path class="cls-3" d="m414.28,240.36c17.81,1.23,35.01,4.51,51.39,9.93l57.84-150.18c-34.4-12.08-71.05-19.35-109.23-20.68v160.93Z"/>
    <path class="cls-6" d="m338.49,249.59c16.69-5.32,34.29-8.49,52.51-9.31V79.25c-38.59,1.12-75.86,8.19-110.66,20.27l58.15,150.08Z"/>
    <path class="cls-1" d="m272.18,284.77c13.62-10.75,28.56-19.86,44.53-26.92l-58.15-150.08c-34.6,14.54-66.44,34.29-94.8,58.15l108.42,118.85Z"/>
  </g>
  <polyline class="cls-11" points="4.59 587.33 326.12 587.33 399.88 661.09 478.31 582.67 797.42 582.67"/>
</svg>